<?xml version="1.0" encoding="UTF-8" standalone="no"?>
<svg width="17px" height="17px" viewBox="0 0 17 17" version="1.1" xmlns="http://www.w3.org/2000/svg" xmlns:xlink="http://www.w3.org/1999/xlink">
    
    <title>close-cross</title>
    <desc>Created with Sketch.</desc>
    <defs></defs>
    <g id="CreateProfile" stroke="none" stroke-width="1" fill="none" fill-rule="evenodd">
        <g id="Avatar-Empty" transform="translate(-1137.000000, -93.000000)" stroke="#231B28" stroke-width="0.5" fill="#FFFFFF">
            <g id="Group" transform="translate(257.000000, 64.000000)">
                <path d="M888.544055,36.0272486 L883.471883,30.3923735 C882.958241,29.880108 882.466012,29.8694366 881.995175,30.3603551 C881.524338,30.8512777 881.524338,31.3315166 881.995175,31.8010923 L887.067347,37.4359673 L881.353128,43.1989077 C880.882291,43.6684834 880.882291,44.1487223 881.353128,44.6396449 C881.823965,45.1305634 882.294794,45.119892 882.765631,44.6076265 L888.415645,38.9727514 L893.487817,44.6076265 C894.001459,45.119892 894.493688,45.1305634 894.964525,44.6396449 C895.435363,44.1487223 895.435363,43.6684834 894.964525,43.1989077 L889.892354,37.5640327 L895.606572,31.8010923 C896.120214,31.3315166 896.130914,30.8512777 895.638677,30.3603551 C895.146435,29.8694366 894.664906,29.880108 894.194069,30.3923735 L888.544055,36.0272486 Z" id="close-cross"></path>
            </g>
        </g>
    </g>
</svg>