<?xml version="1.0" encoding="UTF-8" standalone="no"?>
<svg width="164px" height="58px" viewBox="0 0 164 58" version="1.1" xmlns="http://www.w3.org/2000/svg" xmlns:xlink="http://www.w3.org/1999/xlink">
    
    <title>Group</title>
    <desc>Created with Sketch.</desc>
    <defs>
        <linearGradient x1="43574%" y1="9990%" x2="44467%" y2="9990%" id="linearGradient-1">
            <stop stop-color="#FFFFFF" stop-opacity="0" offset="0%"></stop>
            <stop stop-color="#FFFFFF" offset="100%"></stop>
        </linearGradient>
    </defs>
    <g id="Page-1" stroke="none" stroke-width="1" fill="none" fill-rule="evenodd">
        <g id="Group">
            <polygon id="_Path_3" fill="#9201CE" points="68.4 0 59.46 7.8 54.71 0"></polygon>
            <polygon id="_Path_4" fill="url(#linearGradient-1)" points="59.46 7.8 63.42 0 68.4 0"></polygon>
            <polygon id="_Compound_Path_9" fill="#FFFFFF" points="0.52 58 13.07 11.17 28.6 11.17 27.08 16.84 17.82 16.84 14 31 23.26 31 21.74 36.67 12.48 36.67 8.3 52.26 17.56 52.26 16 58"></polygon>
            <path d="M32.33,11.12 L43.74,11.12 C48.7866667,11.12 50.5933333,13.7866667 49.16,19.12 L45.43,33 C44.01,38.3333333 40.8,41 35.8,41 L30.58,41 L26,58 L19.74,58 L32.33,11.12 Z M32.11,35.32 L36.11,35.32 C37.7633333,35.32 38.8333333,34.4066667 39.32,32.58 L42.82,19.58 C43.3066667,17.7533333 42.6166667,16.84 40.75,16.84 L37.1,16.84 L32.11,35.32 Z" id="_Compound_Path_10" fill="#FFFFFF"></path>
            <polygon id="_Compound_Path_11" fill="#FFFFFF" points="42.47 58 55 11.12 61.26 11.12 48.73 58"></polygon>
            <path d="M74.47,47 L73.67,50 C72.25,55.3333333 69.04,58 64.04,58 L60.04,58 C55.04,58 53.25,55.3333333 54.67,50 L62.95,19.08 C64.37,13.7466667 67.58,11.08 72.58,11.08 L76.58,11.08 C81.58,11.08 83.37,13.7466667 81.95,19.08 L80.53,24.36 L74.27,24.36 L75.56,19.53 C76.0466667,17.7033333 75.3566667,16.79 73.49,16.79 L72.25,16.79 C70.5966667,16.79 69.5266667,17.7033333 69.04,19.53 L61.04,49.53 C60.5533333,51.3566667 61.1333333,52.27 62.78,52.27 L64.35,52.27 C66.0033333,52.27 67.0733333,51.3566667 67.56,49.53 L68.24,46.99 L74.5,46.99 L74.47,47 Z" id="_Compound_Path_12" fill="#FFFFFF"></path>
            <path d="M81.48,58 L75.22,58 L87.77,11.17 L94,11.17 L81.48,58 Z M95.89,58 L89.63,58 L87.94,35.11 L88.04,34.72 L100.87,11.17 L106.61,11.17 L93.78,34.45 L95.89,58 Z" id="_Compound_Path_13" fill="#FFFFFF"></path>
            <polygon id="_Compound_Path_14" fill="#FFFFFF" points="108.43 50 106.3 58 99.65 58 101.78 50"></polygon>
            <path d="M124.59,40.8 L126.11,35.13 L135.63,35.13 L129.52,58 L117.26,58 C112.433333,58 110.723333,55.37 112.13,50.11 L120.41,19.19 C121.843333,13.8566667 124.973333,11.19 129.8,11.19 L134.1,11.19 C139.433333,11.19 141.356667,13.9066667 139.87,19.34 L138.51,24.43 L132.25,24.43 L133.37,20.26 C133.976667,18 133.386667,16.87 131.6,16.87 L130,16.87 C128.173333,16.87 126.956667,18 126.35,20.26 L118.66,48.96 C118.053333,51.22 118.663333,52.35 120.49,52.35 L124.73,52.35 L127.81,40.87 L124.55,40.87 L124.59,40.8 Z" id="_Compound_Path_15" fill="#FFFFFF"></path>
            <path d="M147.73,40.8 L149.25,35.13 L158.77,35.13 L152.65,58 L140.39,58 C135.563333,58 133.853333,55.37 135.26,50.11 L143.54,19.19 C144.973333,13.8566667 148.103333,11.19 152.93,11.19 L157.23,11.19 C162.563333,11.19 164.486667,13.9066667 163,19.34 L161.64,24.43 L155.38,24.43 L156.5,20.26 C157.106667,18 156.516667,16.87 154.73,16.87 L153.16,16.87 C151.333333,16.87 150.116667,18 149.51,20.26 L141.82,48.96 C141.213333,51.22 141.823333,52.35 143.65,52.35 L147.89,52.35 L151,40.8 L147.74,40.8 L147.73,40.8 Z" id="_Compound_Path_16" fill="#FFFFFF"></path>
        </g>
    </g>
</svg>