<?xml version="1.0" encoding="UTF-8" standalone="no"?>
<svg width="164px" height="59px" viewBox="0 0 164 59" version="1.1" xmlns="http://www.w3.org/2000/svg" xmlns:xlink="http://www.w3.org/1999/xlink">
    
    <title>Group 2</title>
    <desc>Created with Sketch.</desc>
    <defs></defs>
    <g id="Page-1" stroke="none" stroke-width="1" fill="none" fill-rule="evenodd">
        <g id="Group-2" fill="#000000">
            <polygon id="_Path_7" points="68.06 0 59.13 7.8 54.37 0"></polygon>
            <polygon id="_Path_8" points="58.67 7.97 63.04 0.17 67.6 0.17"></polygon>
            <polygon id="_Compound_Path_25" points="0.19 58 12.74 11.17 28.26 11.17 26.74 16.84 17.48 16.84 13.67 31 22.93 31 21.41 36.67 12.15 36.67 8 52.3 17.26 52.3 15.71 58"></polygon>
            <path d="M32,11.15 L43.4,11.15 C48.4466667,11.15 50.2533333,13.8166667 48.82,19.15 L45.1,33.04 C43.68,38.3733333 40.47,41.04 35.47,41.04 L30.25,41.04 L25.71,58.04 L19.45,58.04 L32,11.15 Z M31.78,35.35 L35.78,35.35 C37.4333333,35.35 38.5033333,34.4366667 38.99,32.61 L42.49,19.61 C42.9766667,17.7833333 42.2866667,16.87 40.42,16.87 L36.77,16.87 L31.78,35.35 Z" id="_Compound_Path_26"></path>
            <polygon id="_Compound_Path_27" points="42.14 58 54.69 11.17 60.95 11.17 48.4 58 42.14 58"></polygon>
            <path d="M74.13,47 L73.33,50 C71.91,55.3333333 68.7,58 63.7,58 L59.7,58 C54.7,58 52.91,55.3333333 54.33,50 L62.61,19.08 C64.03,13.7466667 67.24,11.08 72.24,11.08 L76.24,11.08 C81.24,11.08 83.03,13.7466667 81.61,19.08 L80.19,24.36 L73.93,24.36 L75.22,19.53 C75.7066667,17.7033333 75.0166667,16.79 73.15,16.79 L71.91,16.79 C70.2566667,16.79 69.1866667,17.7033333 68.7,19.53 L60.7,49.53 C60.2133333,51.3566667 60.7933333,52.27 62.44,52.27 L64,52.27 C65.6533333,52.27 66.7233333,51.3566667 67.21,49.53 L67.89,46.99 L74.15,46.99 L74.13,47 Z" id="_Compound_Path_28"></path>
            <path d="M81.15,58 L74.89,58 L87.44,11.17 L93.7,11.17 L81.15,58 Z M95.56,58 L89.3,58 L87.61,35.11 L87.71,34.72 L100.54,11.17 L106.28,11.17 L93.45,34.45 L95.56,58 Z" id="_Compound_Path_29"></path>
            <polygon id="_Compound_Path_30" points="108.09 50 106 58 99.3 58 101.43 50 108.08 50"></polygon>
            <path d="M124.26,40.82 L125.78,35.15 L135.3,35.15 L129.18,58 L116.92,58 C112.093333,58 110.383333,55.37 111.79,50.11 L120.07,19.19 C121.503333,13.8566667 124.633333,11.19 129.46,11.19 L133.76,11.19 C139.093333,11.19 141.016667,13.9066667 139.53,19.34 L138.17,24.43 L131.91,24.43 L133.03,20.26 C133.636667,18 133.046667,16.87 131.26,16.87 L129.69,16.87 C127.863333,16.87 126.646667,18 126.04,20.26 L118.35,48.96 C117.743333,51.22 118.353333,52.35 120.18,52.35 L124.42,52.35 L127.5,40.87 L124.24,40.87 L124.26,40.82 Z" id="_Compound_Path_31"></path>
            <path d="M147.39,40.82 L148.91,35.15 L158.43,35.15 L152.32,58 L140.05,58 C135.223333,58 133.513333,55.37 134.92,50.11 L143.2,19.19 C144.633333,13.8566667 147.763333,11.19 152.59,11.19 L156.89,11.19 C162.223333,11.19 164.146667,13.9066667 162.66,19.34 L161.3,24.43 L155.04,24.43 L156.16,20.26 C156.766667,18 156.176667,16.87 154.39,16.87 L152.82,16.87 C150.993333,16.87 149.776667,18 149.17,20.26 L141.48,48.96 C140.873333,51.22 141.483333,52.35 143.31,52.35 L147.55,52.35 L150.63,40.87 L147.37,40.87 L147.39,40.82 Z" id="_Compound_Path_32"></path>
        </g>
    </g>
</svg>