<?xml version="1.0" encoding="UTF-8" standalone="no"?>
<svg width="50px" height="50px" viewBox="0 0 50 50" version="1.1" xmlns="http://www.w3.org/2000/svg" xmlns:xlink="http://www.w3.org/1999/xlink">
    
    <title>link-icon</title>
    <desc>Created with Sketch.</desc>
    <defs></defs>
    <g id="Desktop" stroke="none" stroke-width="1" fill="none" fill-rule="evenodd">
        <g id="Profile" transform="translate(-495.000000, -2082.000000)">
            <g id="Share" transform="translate(470.000000, 1969.000000)">
                <g id="link-icon" transform="translate(25.000000, 113.000000)">
                    <rect id="Rectangle-5" fill="#FFFFFF" x="0" y="0" width="50" height="50" rx="1.66666667"></rect>
                    <path d="M21.0487805,32.0851582 L19.9487822,33.2092457 C19.4658519,33.6731571 18.8845574,33.9051095 18.204878,33.9051095 C17.5251987,33.9051095 16.9439042,33.6731571 16.4609739,33.2092457 C16.228454,32.9772889 16.0495941,32.7141128 15.9243902,32.4197072 C15.7991864,32.1253016 15.7365854,31.8085975 15.7365854,31.4695881 C15.7365854,31.1484168 15.7991864,30.8406335 15.9243902,30.5462279 C16.0495941,30.2518222 16.228454,29.9886462 16.4609739,29.7566927 L20.5390227,25.7153285 C20.9682944,25.3049461 21.5317039,24.903488 22.2292683,24.5109506 C22.9268327,24.1184098 23.5707283,24.2165416 24.1609756,24.8053528 C24.4292683,25.0551512 24.7512161,25.1800487 25.1268293,25.1800487 C25.5024425,25.1800487 25.8154443,25.0462304 26.0658554,24.7785871 C26.3341481,24.5109472 26.4682927,24.1897827 26.4682927,23.8150834 C26.4682927,23.4403876 26.3341481,23.1192231 26.0658554,22.8515798 C25.0821098,21.8880727 23.9150461,21.486618 22.5646333,21.6472019 C21.2142205,21.8077859 19.9040731,22.5214843 18.6341463,23.7883212 L14.5292683,27.8296854 C14.0463391,28.3292822 13.6707331,28.8913174 13.402439,29.5158151 C13.134145,30.1403128 13,30.7915624 13,31.4695881 C13,32.1654553 13.134145,32.8256257 13.402439,33.4501217 C13.6707331,34.074618 14.0463391,34.6366559 14.5292683,35.136253 C15.0300839,35.6358502 15.6024359,36.0105422 16.2463415,36.2603406 C16.8902456,36.5101391 17.5430871,36.6350365 18.204878,36.6350365 C18.866669,36.6350365 19.5150358,36.5101391 20.1499991,36.2603406 C20.7849625,36.0105422 21.3528432,35.6358502 21.8536585,35.136253 L22.9804878,34.0121655 C23.2487805,33.7623671 23.3829285,33.4501234 23.3829285,33.0754275 C23.3829285,32.7007282 23.2487805,32.3795638 22.9804878,32.1119239 C22.7121951,31.8442805 22.3902473,31.7104623 22.0146341,31.7104623 C21.639021,31.7104623 21.3170732,31.8353598 21.0487805,32.0851582 L21.0487805,32.0851582 Z M33.4707334,16.3479319 C32.3975558,15.2952104 31.1991933,14.7465528 29.875608,14.7019456 C28.5520262,14.6573384 27.3983797,15.1167849 26.4146341,16.080292 L25.0195122,17.4720195 C24.7512195,17.7218178 24.6170715,18.0340615 24.6170715,18.4087608 C24.6170715,18.7834567 24.7512195,19.1046212 25.0195122,19.3722645 C25.2878049,19.6399044 25.6097527,19.7737226 25.9853659,19.7737226 C26.360979,19.7737226 26.6829268,19.6488251 26.9512195,19.3990268 L28.3195139,18.0072993 C28.8382142,17.5077025 29.3971525,17.3203563 29.9963423,17.4452572 C30.5955322,17.5701547 31.1097544,17.8467119 31.5390261,18.2749392 C31.7715453,18.506896 31.9504059,18.7700721 32.0756115,19.0644777 C32.2008136,19.3588833 32.2634146,19.6755874 32.2634146,20.0146003 C32.2634146,20.3357681 32.2008136,20.6435515 32.0756115,20.9379571 C31.9504059,21.2323627 31.7715453,21.4955388 31.5390261,21.7274956 L27.1926812,26.0364964 C26.1910506,27.0178484 25.4308955,27.4237635 24.9121951,27.2542588 C24.3934948,27.0847506 24.0357735,26.892944 23.8390244,26.6788321 C23.5707317,26.4290337 23.2487839,26.3041363 22.8731707,26.3041363 C22.4975575,26.3041363 22.1845557,26.4379545 21.9341446,26.7055944 C21.6658519,26.9732377 21.5317073,27.2944022 21.5317073,27.669098 C21.5317073,28.0437973 21.6658519,28.356041 21.9341446,28.6058394 C22.3813014,29.0697497 22.8642248,29.4132195 23.3829285,29.6362522 C23.9016289,29.8592883 24.4382074,29.9708046 24.9926846,29.9708046 C25.6544756,29.9708046 26.3341412,29.8057603 27.031709,29.4756682 C27.7292734,29.1455796 28.4178816,28.6415293 29.097561,27.9635036 L33.4707334,23.6545029 C33.9536603,23.1549027 34.3292666,22.5928675 34.5975593,21.9683698 C34.8658554,21.3438722 35,20.6926225 35,20.0146003 C35,19.3187297 34.8658554,18.6585592 34.5975593,18.0340615 C34.3292666,17.4095673 33.9536603,16.8475286 33.4707334,16.3479319 L33.4707334,16.3479319 Z" id="Link" stroke="#30343C" stroke-width="0.5" fill="#30343C"></path>
                </g>
            </g>
        </g>
    </g>
</svg>