<?xml version="1.0" encoding="UTF-8" standalone="no"?>
<svg width="50px" height="50px" viewBox="0 0 50 50" version="1.1" xmlns="http://www.w3.org/2000/svg" xmlns:xlink="http://www.w3.org/1999/xlink">
    
    <title>reddit-icon</title>
    <desc>Created with Sketch.</desc>
    <defs></defs>
    <g id="Desktop" stroke="none" stroke-width="1" fill="none" fill-rule="evenodd">
        <g id="Profile" transform="translate(-560.000000, -2082.000000)">
            <g id="Share" transform="translate(470.000000, 1969.000000)">
                <g id="reddit-icon" transform="translate(90.000000, 113.000000)">
                    <rect id="Rectangle-5" fill="#FFFFFF" x="0" y="0" width="50" height="50" rx="1.66666667"></rect>
                    <path d="M40.0111625,24.1629438 C40.0111625,23.2514813 39.6856438,22.4702438 39.0346,21.8191938 C38.3835563,21.16815 37.5930125,20.8426313 36.6629438,20.8426313 C35.7328813,20.8426313 34.9330375,21.17745 34.2633938,21.8471 C31.845225,20.1729813 28.9527688,19.2801375 25.5859375,19.168525 L27.34375,11.2723188 L32.9241063,12.5279 C32.9241063,13.21615 33.1659188,13.8020813 33.6495563,14.2857125 C34.1331875,14.76935 34.7191188,15.0111625 35.4073688,15.0111625 C36.0956125,15.0111625 36.6861938,14.7647 37.1791313,14.2717625 C37.6720625,13.7788313 37.918525,13.18825 37.918525,12.5 C37.918525,11.81175 37.6720625,11.2211688 37.1791313,10.7282375 C36.6861938,10.2353 36.0956125,9.9888375 35.4073688,9.9888375 C34.4028938,9.9888375 33.6588563,10.4538625 33.175225,11.3839313 L27.0089313,10.0167438 C26.6555063,9.9237375 26.4229938,10.0725438 26.3113813,10.4631688 L24.3861625,19.168525 C21.0379313,19.2987375 18.164075,20.2008875 15.7645063,21.875 C15.1134625,21.18675 14.3043188,20.8426313 13.3370563,20.8426313 C12.4069875,20.8426313 11.6164438,21.16815 10.9654,21.8191938 C10.3143563,22.4702438 9.9888375,23.2514813 9.9888375,24.1629438 C9.9888375,24.8139938 10.1609,25.409225 10.505025,25.9486625 C10.8491438,26.4881 11.3095188,26.8973188 11.8861625,27.1763375 C11.77455,27.678575 11.71875,28.1994 11.71875,28.7388375 C11.71875,31.3802188 13.0208188,33.6402438 15.625,35.518975 C18.2291813,37.3977 21.36345,38.3370563 25.0279,38.3370563 C28.7109563,38.3370563 31.854525,37.3977 34.4587063,35.518975 C37.0628875,33.6402438 38.3649563,31.3802188 38.3649563,28.7388375 C38.3649563,28.1436 38.29985,27.6134688 38.1696438,27.1484375 C38.7276813,26.8694188 39.1741063,26.4648438 39.5089313,25.9347125 C39.84375,25.404575 40.0111625,24.8139938 40.0111625,24.1629438 L40.0111625,24.1629438 Z" id="Path" fill="#30343C"></path>
                    <path d="M30.5524563,32.5613812 C30.850075,32.8590062 30.850075,33.1473187 30.5524563,33.4263375 C29.399175,34.5796187 27.548375,35.15625 25,35.15625 C22.451625,35.15625 20.600825,34.5796187 19.4475438,33.4263375 C19.149925,33.1473187 19.149925,32.8590062 19.4475438,32.5613812 C19.55915,32.449775 19.6986625,32.393975 19.8660688,32.393975 C20.0334813,32.393975 20.1729875,32.449775 20.2846,32.5613812 C21.1774625,33.4728437 22.7492438,33.9285687 25,33.9285687 C27.2321563,33.9285687 28.8039375,33.4728437 29.7154,32.5613812 C29.8270125,32.449775 29.9665188,32.393975 30.1339313,32.393975 C30.3013375,32.393975 30.44085,32.449775 30.5524563,32.5613812 L30.5524563,32.5613812 Z" id="Path" fill="#FFFFFF"></path>
                    <path d="M21.9866063,27.5111625 C21.9866063,28.1994062 21.7447938,28.7853375 21.2611625,29.268975 C20.777525,29.7526062 20.1915938,29.9944187 19.50335,29.9944187 C18.8151,29.9944187 18.2245188,29.7526062 17.7315875,29.268975 C17.23865,28.7853375 16.9921875,28.1994062 16.9921875,27.5111625 C16.9921875,26.8043125 17.23865,26.2090812 17.7315875,25.7254437 C18.2245188,25.2418125 18.8151,25 19.50335,25 C20.1915938,25 20.777525,25.2464625 21.2611625,25.7394 C21.7447938,26.2323312 21.9866063,26.8229125 21.9866063,27.5111625 L21.9866063,27.5111625 Z" id="Path" fill="#FFFFFF"></path>
                    <path d="M33.0078125,27.5111625 C33.0078125,28.1994062 32.76135,28.7853375 32.2684125,29.268975 C31.7754812,29.7526062 31.1849,29.9944187 30.49665,29.9944187 C29.8084062,29.9944187 29.222475,29.7526062 28.7388375,29.268975 C28.2552062,28.7853375 28.0133937,28.1994062 28.0133937,27.5111625 C28.0133937,26.8229125 28.2552062,26.2323312 28.7388375,25.7394 C29.222475,25.2464625 29.8084062,25 30.49665,25 C31.1849,25 31.7754812,25.2418125 32.2684125,25.7254437 C32.76135,26.2090812 33.0078125,26.8043125 33.0078125,27.5111625 L33.0078125,27.5111625 Z" id="Path" fill="#FFFFFF"></path>
                </g>
            </g>
        </g>
    </g>
</svg>