<?xml version="1.0" encoding="UTF-8" standalone="no"?>
<svg width="50px" height="50px" viewBox="0 0 50 50" version="1.1" xmlns="http://www.w3.org/2000/svg" xmlns:xlink="http://www.w3.org/1999/xlink">
    
    <title>twitter-icon</title>
    <desc>Created with Sketch.</desc>
    <defs></defs>
    <g id="Desktop" stroke="none" stroke-width="1" fill="none" fill-rule="evenodd">
        <g id="Profile" transform="translate(-690.000000, -2082.000000)">
            <g id="Share" transform="translate(470.000000, 1969.000000)">
                <g id="twitter-icon" transform="translate(220.000000, 113.000000)">
                    <rect id="Rectangle-5" fill="#FFFFFF" x="0" y="0" width="50" height="50" rx="1.66666667"></rect>
                    <path d="M35.1626016,20.4476145 L35.1626016,20.7782334 L35.1626016,21.1088523 C35.1626016,22.7365291 34.8577236,24.3811402 34.2479675,26.0427247 C33.6382114,27.7043156 32.7405203,29.2048127 31.5548748,30.5442552 C30.3692358,31.8836976 28.9126114,32.9772772 27.1849626,33.8250265 C25.4573073,34.6727758 23.4586862,35.0966472 21.1890211,35.0966472 C19.8001301,35.0966472 18.4705366,34.9016653 17.2002016,34.5117015 C15.9298732,34.1217378 14.7357789,33.5876601 13.6178862,32.9094619 C13.8211382,32.9094619 14.0243902,32.9179389 14.2276423,32.9348927 C14.4308943,32.9518465 14.6341463,32.9603234 14.8373984,32.9603234 C15.9891642,32.9603234 17.0816325,32.7738249 18.1148358,32.400815 C19.148039,32.027805 20.0880715,31.5191646 20.9349593,30.8748741 C19.8509463,30.8409665 18.8939772,30.5018706 18.064026,29.8575802 C17.2340748,29.2132897 16.6497301,28.399461 16.3109724,27.4160747 C16.4803512,27.4499823 16.6412618,27.4754196 16.7936976,27.4923734 C16.9461398,27.5093272 17.0901073,27.5178041 17.225613,27.5178041 C17.4627382,27.5178041 17.6913951,27.5008503 17.9115837,27.4669362 C18.1317789,27.4330285 18.3434927,27.3991209 18.5467447,27.3652133 C17.4288585,27.1278403 16.488826,26.559855 15.7266276,25.6612443 C14.9644293,24.7626271 14.5833366,23.7199154 14.5833366,22.5330638 L14.5833366,22.4822024 C14.9220878,22.6517471 15.2777756,22.7873841 15.6504065,22.88912 C16.0230374,22.9908494 16.4125984,23.0586646 16.8191089,23.0925788 C16.1754732,22.6517471 15.6504065,22.0668079 15.2439024,21.3377418 C14.8373984,20.6086823 14.6341463,19.8202844 14.6341463,18.9725351 C14.6341463,18.5317034 14.6934244,18.0993616 14.8119935,17.6754837 C14.9305561,17.2516123 15.0914602,16.8531716 15.2947122,16.4801617 C16.5142309,17.9722015 17.9962667,19.1844643 19.740852,20.1169891 C21.4854439,21.049514 23.3909138,21.5666314 25.4573138,21.6683673 C25.3895675,21.464902 25.3472195,21.2699266 25.3302829,21.0834216 C25.3133463,20.8969166 25.304878,20.7188886 25.304878,20.5493374 C25.304878,19.1929412 25.7875967,18.0315398 26.7530472,17.0651073 C27.7184976,16.0986748 28.8787187,15.6154651 30.2337431,15.6154651 C30.9451252,15.6154651 31.6056911,15.7511021 32.2154472,16.0223827 C32.8252033,16.2936632 33.3672065,16.6666667 33.8414634,17.141406 C34.3834732,17.0396766 34.9170016,16.8870858 35.4420748,16.6836205 C35.9671415,16.4801617 36.4667967,16.2427953 36.9410602,15.9715212 C36.7716813,16.54799 36.5006764,17.0651073 36.128052,17.5228929 C35.7554211,17.9806784 35.3150439,18.3791125 34.8069073,18.7182083 C35.2811707,18.6503931 35.7554146,18.5486637 36.2296715,18.4130267 C36.703935,18.2773831 37.1612423,18.1078385 37.601626,17.9043732 C37.296748,18.4130267 36.9325919,18.8792826 36.5091447,19.303154 C36.0857041,19.7270319 35.6368585,20.1085122 35.1626016,20.4476145 L35.1626016,20.4476145 Z" id="Path" fill="#30343C"></path>
                </g>
            </g>
        </g>
    </g>
</svg>